# xmcd CD database file
#
# Track frame offsets:
#	150
#	15797
#	31892
#	46000
#	59970
#	73542
#	106607
#	123692
#	147380
#	159077
#	170080
#	186200
#	201920
#	215180
#	228934
#	240947
#	253012
#	264825
#	277812
#	290405
#	319500
#
# Disc length: 4646 seconds
#
# Revision: 0
# Processed by: cddbd v1.5.1PL2 Copyright (c) Steve Scherf et al.
# Submitted via: CDex 1.51
#
DISCID=25122415
DTITLE=Charlie Parker - The Yardbird Sessions Disc 2
DYEAR=2005
DGENRE=Jazz
TTITLE0=Bloomdido
TTITLE1=Star Eyes
TTITLE2=She Rote
TTITLE3=My Little Suede Shoes
TTITLE4=Confirmation
TTITLE5=Blue 'N' Boogie (live)
TTITLE6='Round Midnight (live)
TTITLE7=A Night in Tunisia (live)
TTITLE8=Just Friends (live)
TTITLE9=What Is This Thing Called Love? (live)
TTITLE10=East of the Sun (And West of the Moon) (live)
TTITLE11=Laura (live)
TTITLE12=The Gypsy (Take A)
TTITLE13=Cheers (Take D)
TTITLE14=Carvin' the Bird (Take B)
TTITLE15=Bongo Bop (Take A)
TTITLE16=Charlie's Wig (Birdfeathers) (Take E)
TTITLE17=Crazeology (Take D)
TTITLE18=Drifting on a Reed (Take E)
TTITLE19=Move
TTITLE20=Wahoo
EXTD=YEAR: 2005
EXTT0=
EXTT1=
EXTT2=
EXTT3=
EXTT4=
EXTT5=
EXTT6=
EXTT7=
EXTT8=
EXTT9=
EXTT10=
EXTT11=
EXTT12=
EXTT13=
EXTT14=
EXTT15=
EXTT16=
EXTT17=
EXTT18=
EXTT19=
EXTT20=
PLAYORDER=
